# xmcd CD database file
# Copyright (C) 1993-1998 Ti Kan
# 
# Track frame offsets:
#     150
#     14045
#     30692
#     53917
#     63307
#     81772
#     102280
#     121405
#     142960
#     163270
# 
# Disc length: 2447 seconds
# 
# Revision: 1
# Processed by: cddbd v1.4b41PL1 Copyright (c) Steve Scherf et al.
# Submitted via: DiscPlay 4.0.4
# 
DISCID=86098d0a
DTITLE=O(+> - Emancipation - The Secret Chapter
DYEAR=1900
DGENRE=
TTITLE0=Slave 2 The System
TTITLE1=New World
TTITLE2=Slave
TTITLE3=2020
TTITLE4=Feelgood
TTITLE5=Right Back Here In Your Arms
TTITLE6=Journey 2 The Center Of Your Heart
TTITLE7=Eye Am The DJ
TTITLE8=Goodbye
TTITLE9=Emancipation
EXTD=
EXTT0=
EXTT1=
EXTT2=
EXTT3=
EXTT4=
EXTT5=
EXTT6=
EXTT7=
EXTT8=\n\n\n\n
EXTT9=
PLAYORDER=
